<svg width="60" height="60" viewBox="0 0 60 60" fill="none" xmlns="http://www.w3.org/2000/svg">
<circle cx="29.6392" cy="29.64" r="29.44" fill="white"/>
<path d="M35.5984 16.7214L30.5928 19.8846L33.8109 26.3604H40.3197L35.5984 16.7214Z" fill="#94C0A2"/>
<path d="M23.9695 31.7929L29.7756 19.7041L26.906 13.0479L17.168 32.929L20.7458 36.7209L34.586 36.8872L28.1163 31.7421L23.9695 31.7929Z" fill="#00874B"/>
<path d="M27.4756 13L30.3256 19.3827L35.2281 16.2167L27.4756 13Z" fill="#59A173"/>
<path d="M34.8257 31.7929L29.1201 31.8239L35.4365 36.8365L34.8257 31.7929Z" fill="#59A173"/>
<path d="M40.7459 28.2491C40.7459 28.2491 39.134 28.1899 37.0788 30.5806C35.4056 32.554 35.9243 34.4119 36.139 34.9701L38.2667 32.2919L38.4842 32.4667L36.3927 35.1054C37.0174 34.9673 39.1256 34.4035 40.0989 32.9177C41.1642 31.2995 40.7459 28.2491 40.7459 28.2491Z" fill="#59A173"/>
<path d="M14.8405 45.7425L14.3943 47.3946H13L15.1975 40.2535H16.8707L19.0514 47.3946H17.6208L17.183 45.7425H14.8405ZM16.0062 41.2994L15.1054 44.7079H16.9041L16.0062 41.2994Z" fill="#59A173"/>
<path d="M24.2022 40.978L23.5162 41.7561C23.0938 41.3546 22.5343 41.1334 21.9546 41.1387C21.3187 41.1387 20.8614 41.4206 20.8614 41.9844C20.8614 42.5003 21.1403 42.7287 22.3115 43.1121C23.5497 43.504 24.4058 44.0199 24.4058 45.3675C24.4058 46.6474 23.4158 47.558 21.7287 47.558C21.2611 47.5738 20.7951 47.4951 20.3579 47.3267C19.9207 47.1582 19.5212 46.9033 19.1826 46.5769L19.8993 45.7706C20.136 46.0073 20.417 46.194 20.7258 46.3199C21.0346 46.4457 21.3651 46.5082 21.698 46.5036C22.4537 46.5036 22.9975 46.1315 22.9975 45.4408C22.9975 44.8403 22.6991 44.5725 21.6032 44.2313C20.1224 43.7662 19.4782 43.1657 19.4782 42.0803C19.4782 40.8934 20.4905 40.1068 21.8793 40.1068C22.3045 40.0871 22.7292 40.1541 23.1283 40.3037C23.5274 40.4534 23.8926 40.6827 24.2022 40.978Z" fill="#59A173"/>
<path d="M27.6456 40.2535C29.4248 40.2535 30.5096 40.9893 30.5096 42.5286C30.5096 44.1694 29.3328 44.9052 27.7377 44.9052H26.9011V47.3946H25.5625V40.2535H27.6456ZM27.6456 43.8818C28.5436 43.8818 29.1069 43.5717 29.1069 42.5286C29.1069 41.6293 28.5659 41.2571 27.6456 41.2571H26.9094V43.8818H27.6456Z" fill="#59A173"/>
<path d="M31.6035 47.3946V40.2535H32.9616V47.3946H31.6035Z" fill="#59A173"/>
<path d="M35.9669 44.5331V47.3946H34.6172V40.2535H36.7226C38.5743 40.2535 39.5113 40.9357 39.5113 42.351C39.5113 43.3236 39.0428 43.9016 38.0807 44.285L39.9324 47.3861H38.3763L36.8147 44.5246L35.9669 44.5331ZM36.8035 43.5492C37.6401 43.5492 38.1142 43.2108 38.1142 42.351C38.1142 41.5757 37.6736 41.2458 36.692 41.2458H35.9669V43.5492H36.8035Z" fill="#59A173"/>
<path d="M42.2112 41.2684V43.2616H44.4812V44.2737H42.2112V46.3712H44.9999V47.3946H40.8643V40.2535H44.9608L44.8186 41.2684H42.2112Z" fill="#59A173"/>
</svg>
