<?xml version="1.0" encoding="utf-8"?>
<!-- Generator: Adobe Illustrator 24.1.0, SVG Export Plug-In . SVG Version: 6.00 Build 0)  -->
<svg version="1.1" id="Layer_1" xmlns="http://www.w3.org/2000/svg" xmlns:xlink="http://www.w3.org/1999/xlink" x="0px" y="0px"
	 viewBox="0 0 384 144" style="enable-background:new 0 0 384 144;" xml:space="preserve">
<style type="text/css">
	.st0{fill-rule:evenodd;clip-rule:evenodd;fill:#6C757D;}
</style>
<path class="st0" d="M311,79c-0.6,0-1-0.4-1-1s0.4-1,1-1s1,0.4,1,1S311.6,79,311,79z M321,77h-7.2c-0.4-1.2-1.5-2-2.8-2
	s-2.4,0.8-2.8,2H303c-0.6,0-1,0.4-1,1s0.4,1,1,1h5.2c0.4,1.2,1.5,2,2.8,2s2.4-0.8,2.8-2h7.2c0.6,0,1-0.4,1-1S321.6,77,321,77z
	 M319,73c-0.6,0-1-0.4-1-1s0.4-1,1-1s1,0.4,1,1S319.6,73,319,73z M319,69c-1.3,0-2.4,0.8-2.8,2H303c-0.6,0-1,0.4-1,1s0.4,1,1,1h13.2
	c0.4,1.2,1.5,2,2.8,2c1.7,0,3-1.3,3-3S320.7,69,319,69z M307,65c0.6,0,1,0.4,1,1s-0.4,1-1,1s-1-0.4-1-1S306.4,65,307,65z M303,67
	h1.2c0.4,1.2,1.5,2,2.8,2s2.4-0.8,2.8-2H321c0.6,0,1-0.4,1-1s-0.4-1-1-1h-11.2c-0.4-1.2-1.5-2-2.8-2s-2.4,0.8-2.8,2H303
	c-0.6,0-1,0.4-1,1S302.4,67,303,67z"/>
<path class="st0" d="M264,66c-0.6,0-1-0.4-1-1s0.4-1,1-1s1,0.4,1,1S264.6,66,264,66z M267,65c0-1.7-1.3-3-3-3s-3,1.3-3,3
	c0,1.3,0.8,2.4,2,2.8V81c0,0.6,0.4,1,1,1s1-0.4,1-1V67.8C266.2,67.4,267,66.3,267,65z M258,78c-0.6,0-1-0.4-1-1s0.4-1,1-1s1,0.4,1,1
	S258.6,78,258,78z M259,74.2V63c0-0.6-0.4-1-1-1s-1,0.4-1,1v11.2c-1.2,0.4-2,1.5-2,2.8s0.8,2.4,2,2.8V81c0,0.6,0.4,1,1,1s1-0.4,1-1
	v-1.2c1.2-0.4,2-1.5,2-2.8S260.2,74.6,259,74.2z M270,74c-0.6,0-1-0.4-1-1s0.4-1,1-1s1,0.4,1,1S270.6,74,270,74z M273,73
	c0-1.3-0.8-2.4-2-2.8V63c0-0.6-0.4-1-1-1s-1,0.4-1,1v7.2c-1.2,0.4-2,1.5-2,2.8s0.8,2.4,2,2.8V81c0,0.6,0.4,1,1,1s1-0.4,1-1v-5.2
	C272.2,75.4,273,74.3,273,73z"/>
<path class="st0" d="M168,75c-1.7,0-3-1.3-3-3s1.3-3,3-3s3,1.3,3,3S169.7,75,168,75z M168,67c-2.8,0-5,2.2-5,5s2.2,5,5,5s5-2.2,5-5
	S170.8,67,168,67z M168,80c-4.4,0-8-3.6-8-8s3.6-8,8-8s8,3.6,8,8S172.4,80,168,80z M168,62c-5.5,0-10,4.5-10,10s4.5,10,10,10
	s10-4.5,10-10S173.5,62,168,62z"/>
<path class="st0" d="M216,64c-4.4,0-8,3.6-8,8s3.6,8,8,8s8-3.6,8-8S220.4,64,216,64z M216,82c-5.5,0-10-4.5-10-10s4.5-10,10-10
	s10,4.5,10,10S221.5,82,216,82z"/>
<path class="st0" d="M117,73c-0.6,0-1-0.4-1-1s0.4-1,1-1s1,0.4,1,1S117.6,73,117,73z M117,69c-1.7,0-3,1.3-3,3s1.3,3,3,3s3-1.3,3-3
	S118.7,69,117,69z M123,77h-6c-2.8,0-5-2.2-5-5s2.2-5,5-5h6c2.8,0,5,2.2,5,5S125.8,77,123,77z M123,65h-6c-3.9,0-7,3.1-7,7
	s3.1,7,7,7h6c3.9,0,7-3.1,7-7S126.9,65,123,65z"/>
<path class="st0" d="M75,73c-0.6,0-1-0.4-1-1s0.4-1,1-1s1,0.4,1,1S75.6,73,75,73z M75,69c-1.7,0-3,1.3-3,3s1.3,3,3,3s3-1.3,3-3
	S76.7,69,75,69z M75,77h-6c-2.8,0-5-2.2-5-5s2.2-5,5-5h6c2.8,0,5,2.2,5,5S77.8,77,75,77z M75,65h-6c-3.9,0-7,3.1-7,7s3.1,7,7,7h6
	c3.9,0,7-3.1,7-7S78.9,65,75,65z"/>
</svg>
